<?xml version='1.0' encoding='iso-8859-1'?>
<!-- Uploaded to: SVG Repo, www.svgrepo.com, Generator: SVG Repo Mixer Tools -->
<svg fill="#0a027a" height="800px" width="800px" version="1.1" xmlns="http://www.w3.org/2000/svg" viewBox="0 0 470 470" xmlns:xlink="http://www.w3.org/1999/xlink" enable-background="new 0 0 470 470">
  <g>
    <g>
      <path d="m378.353,255.708c-10.154-19.632-24.464-37.196-41.649-51.193 16.715-22.078 25.841-49.115 25.841-76.969 0-70.329-57.217-127.546-127.546-127.546s-127.546,57.217-127.546,127.546c0,27.854 9.126,54.891 25.841,76.969-17.186,13.997-31.496,31.561-41.649,51.193-11.734,22.688-17.936,48.27-17.936,73.98 0,28.671 7.623,56.83 22.043,81.433 13.991,23.869 34.009,43.875 57.891,57.852 1.149,0.673 2.457,1.027 3.789,1.027h155.136c1.332,0 2.639-0.354 3.789-1.027 23.881-13.978 43.9-33.983 57.891-57.852 14.42-24.603 22.043-52.762 22.043-81.433-0.002-25.711-6.204-51.293-17.938-73.98zm-67.847,199.292h-151.014c-43.713-26.404-70.783-74.231-70.783-125.312 0-46.316 22.306-90.387 59.669-117.889 1.681-1.237 2.771-3.12 3.006-5.193 0.235-2.074-0.404-4.153-1.765-5.736-17.519-20.379-27.167-46.419-27.167-73.324 0.001-62.058 50.489-112.546 112.547-112.546s112.546,50.488 112.546,112.546c0,26.904-9.648,52.944-27.167,73.324-1.361,1.583-2,3.662-1.765,5.736 0.236,2.074 1.325,3.956 3.006,5.193 37.363,27.501 59.669,71.572 59.669,117.889 0.001,51.081-27.069,98.908-70.782,125.312z"/>
      <path d="m160.094,112.228c0,41.303 33.603,74.905 74.905,74.905s74.905-33.603 74.905-74.905c0-3.096-0.211-6.143-0.578-9.142-0.022-0.369-0.064-0.735-0.139-1.094-5.009-36.475-36.359-64.669-74.188-64.669-37.83,0-69.179,28.194-74.188,64.669-0.076,0.359-0.117,0.726-0.139,1.095-0.367,2.998-0.578,6.045-0.578,9.141zm74.905,59.905c-33.032,0-59.905-26.874-59.905-59.905 0-1.203 0.046-2.394 0.116-3.58 24.013-10.782 44.809-28.126 59.789-49.778 14.979,21.653 35.775,38.997 59.789,49.779 0.07,1.185 0.116,2.377 0.116,3.58 0,33.031-26.873,59.904-59.905,59.904zm55.492-82.436c-15.706-8.852-29.49-20.964-40.314-35.421 18.335,4.806 33.258,18.106 40.314,35.421zm-70.672-35.421c-10.823,14.456-24.607,26.567-40.312,35.42 7.057-17.314 21.978-30.613 40.312-35.42z"/>
      <path d="m351.813,281.015c-45.208-0.843-87.275-25.791-109.785-65.108-1.336-2.333-3.819-3.773-6.509-3.773s-5.173,1.44-6.509,3.774c-22.706,39.661-65.153,64.615-110.776,65.122-4.142,0.046-7.462,3.441-7.416,7.583 0.046,4.113 3.395,7.417 7.498,7.417 0.028,0 0.057,0 0.085,0 25.565-0.284 50.617-7.354 72.445-20.445 17.706-10.618 32.969-24.964 44.673-41.898 11.605,16.791 26.714,31.042 44.229,41.631 21.612,13.066 46.434,20.223 71.784,20.695 4.136,0.099 7.561-3.217 7.638-7.359 0.079-4.142-3.215-7.562-7.357-7.639z"/>
      <path d="m259.847,106.03h-6.327c-4.142,0-7.5,3.358-7.5,7.5s3.358,7.5 7.5,7.5h6.327c4.142,0 7.5-3.358 7.5-7.5s-3.358-7.5-7.5-7.5z"/>
      <path d="m217.52,106.03h-7.368c-4.142,0-7.5,3.358-7.5,7.5s3.358,7.5 7.5,7.5h7.368c4.142,0 7.5-3.358 7.5-7.5s-3.358-7.5-7.5-7.5z"/>
    </g>
  </g>
</svg>